<?xml version="1.0" standalone="no"?>
<!DOCTYPE svg PUBLIC "-//W3C//DTD SVG 20010904//EN"
 "http://www.w3.org/TR/2001/REC-SVG-20010904/DTD/svg10.dtd">
<svg version="1.0" xmlns="http://www.w3.org/2000/svg"
 width="640.000000pt" height="640.000000pt" viewBox="0 0 640.000000 640.000000"
 preserveAspectRatio="xMidYMid meet">
<metadata>
Created by potrace 1.11, written by Peter Selinger 2001-2013
</metadata>
<g transform="translate(0.000000,640.000000) scale(0.100000,-0.100000)"
fill="#000000" stroke="none">
<path d="M2979 6316 c-2 -2 -42 -6 -88 -10 -313 -24 -718 -137 -1028 -286
-343 -165 -601 -347 -869 -615 -395 -394 -661 -853 -809 -1395 -25 -91 -54
-223 -61 -280 -2 -19 -6 -42 -9 -50 -4 -15 -10 -61 -24 -190 -11 -105 -12
-455 0 -575 102 -1075 741 -2015 1704 -2502 346 -176 722 -285 1105 -321 145
-14 577 -7 700 11 125 19 118 17 270 48 429 86 901 311 1270 603 567 450 978
1115 1114 1801 53 267 61 353 61 645 0 331 -17 480 -90 770 -137 544 -414
1030 -819 1436 -354 354 -762 606 -1231 759 -120 40 -298 87 -370 98 -39 7
-208 34 -260 42 -42 7 -560 17 -566 11z"/>
</g>
</svg>
